<svg xmlns="http://www.w3.org/2000/svg" xmlns:xlink="http://www.w3.org/1999/xlink" width="900.422" height="415.875" viewBox="0 0 900.422 415.875">
  <defs>
    <linearGradient id="linear-gradient" x1="-1.796" y1="0.266" x2="1" y2="0.292" gradientUnits="objectBoundingBox">
      <stop offset="0" stop-color="#fcd40c"/>
      <stop offset="1" stop-color="#da2655"/>
    </linearGradient>
  </defs>
  <g id="Group_3" data-name="Group 3" transform="translate(-235.155 -263.465)">
    <path id="Path_6" data-name="Path 6" d="M760.631,458.5q4.756,20.756,8.073,41.823c.665,4.173,1.257,8.574-.255,12.519-1.267,3.289-3.845,5.859-5.868,8.738s-3.554,6.57-2.323,9.868,4.82,5.1,8.246,6.032c9.8,2.642,20.255.72,30.014-2.141a48.554,48.554,0,0,0,12.583-5.212A47.089,47.089,0,0,0,821.743,520.1c14.223-17.248,23.536-37.95,32.3-58.524a35.645,35.645,0,0,1-30.169-12.155c-3.59-4.219-6.223-10.1-4.2-15.253-5.932,3.253-12.975,3.472-19.362,5.695a68.784,68.784,0,0,0-11.39,5.6q-6.542,3.781-13.011,7.709C770.982,456.147,766.362,458.79,760.631,458.5Z" transform="translate(42.803 -50.55)" fill="#ae6e79"/>
    <path id="Path_7" data-name="Path 7" d="M820.29,484.191c-5.567,10.834-12.811,21.249-23.153,27.7s-24.264,8.2-34.624,1.822c-5.1-3.116-8.966-7.854-13.422-11.845s-10.023-7.408-16.009-6.888c-6.6.574-11.763,5.722-16.182,10.652-6.706,7.49-13.185,15.3-17.932,24.164-9.112,17.039-11.271,36.957-10.87,56.274s3.2,38.533,3.262,57.85c.091,23.763-3.936,47.335-8.009,70.743,37.449-4.61,74.944,5.467,112.475,9.285,24.018,2.469,48.219,2.415,72.365,2.351,4.246,0,8.765-.109,12.3-2.46a16.583,16.583,0,0,0,5.093-6.05c3.335-6.15,4.674-13.166,5.6-20.1,2.36-17.513,2.433-35.244,2.5-52.921.164-42.825.319-85.8-5.121-128.293-1.339-10.451-3.052-20.957-7.062-30.734s-10.551-18.77-19.7-24.009c-5.877-3.371-19.5-9.239-26.424-5.841C827.606,459.681,824.016,476.938,820.29,484.191Z" transform="translate(49.595 -52.389)" fill="#444"/>
    <path id="Path_8" data-name="Path 8" d="M835.905,604.391c-1.412-26.424-7.162-54.625,5.075-78.078,3.007-5.759-7.781-12.948-4.446-18.524a83.9,83.9,0,0,0,9.166-21.8c.693-2.633,1.248-5.421.592-8.064-1.212-4.82-5.977-7.69-10.023-10.624-4.465-3.244-6.761-13.13-8.2-18.479s11.453,1.093,16.638-.811c7.2-2.633,16.346-.975,23.526,1.695,4.009,1.476,8.365,1.6,12.638,1.713,8.3.219,16.629.428,24.866-.592,3.7-.465,7.408-1.166,11.125-.957,9.485.538,17.731,7.025,23.344,14.7s9.185,16.611,13.786,24.921c3.836,6.925,8.41,13.467,11.681,20.674,2.9,6.378,4.729,13.23,6.542,20.046l4.674,17.485a23.311,23.311,0,0,1,1.148,7.754,22.011,22.011,0,0,1-2.733,7.891,149.542,149.542,0,0,1-17.012,25.959c-9.831,12.055-21.768,22.925-27.608,37.358a94.36,94.36,0,0,0-4.7,17.558,645.068,645.068,0,0,0-9.932,72.119A158.725,158.725,0,0,0,882.776,705.2a161.82,161.82,0,0,0-17.312-2.734c-5.093-.528-11.663.474-16.51-.911-8.109-2.305-9-16.018-10.232-23.2-1.968-11.435-2.36-23.071-2.433-34.624C836.2,630.6,836.607,617.485,835.905,604.391Z" transform="translate(36.75 -51.658)" fill="url(#linear-gradient)"/>
    <path id="Path_9" data-name="Path 9" d="M633.56,564.341c3.836,21.868,8.064,43.8,16.4,64.347-.21.2-.419.383-.629.565-.738.629-1.5,1.221-2.305,1.822-1.868,1.312-3.918,2.424-5.467,4.137a7.289,7.289,0,0,0-1.367,2.232,4.993,4.993,0,0,0,0,4.073c-4.346,1.923-9.394,1.33-14.269,1.148-4.2-.155-8.273,0-11.645,2.305-4.683,3.226-6.1,9.422-6.852,15.053q-.419,3.08-.72,6.169-.292,2.87-.474,5.759a171.849,171.849,0,0,0-.173,19.134q.073,1.75.191,3.5c-14.888-.355-28.456-8.119-41.294-15.663-2.934-1.722-5.959-3.535-7.863-6.378a14.4,14.4,0,0,1-2.1-9.376,10.358,10.358,0,0,1,.146-1.385,37.888,37.888,0,0,1,2.087-7.909,97.677,97.677,0,0,1,17.485-29.75c3.262-3.809,6.934-7.535,8.456-12.319.665-2.087.911-4.3,1.585-6.378,3.025-9,13.941-13.258,17.677-22,.911-2.087,1.33-4.374,2.46-6.378a16.066,16.066,0,0,1,3.872-4.328c.665-.556,1.358-1.093,2.041-1.631q9.6-7.526,18.506-15.9,1.658-1.558,3.28-3.153a54.2,54.2,0,0,0,.975,12.3Z" transform="translate(61.007 -61.021)" fill="url(#linear-gradient)"/>
    <path id="Path_10" data-name="Path 10" d="M732.958,492.624c-1.312,1.385-2.734,2.688-4.128,3.982l-.374.337-1.476,1.367a35.537,35.537,0,0,0-6.879,8.009l-.155.255c-4.647,8.319-2.925,18.561-1.631,28.009a238.31,238.31,0,0,1,2.159,35.536c-.237,16.4-2.169,32.693-2.205,49.076q0,5.576.246,11.144c.264,6.041.72,12.073,1.267,18.1.592,6.615,1.3,13.221,1.968,19.827.529,5.112,1.03,10.214,1.449,15.317.21,2.642.41,5.276.574,7.918.191,3.1.346,6.205.437,9.3h0c.064,1.968.1,3.927.1,5.9v3.344q0,3.2-.173,6.378-.182,4.091-.556,8.2c-.282,2.98-.784,6.232-2.879,8.328-.128.128-.264.246-.4.365l-2.952-.365a303.171,303.171,0,0,0-61.322-1.094c.446-3.08.857-6.15,1.257-9.239.182-1.458.365-2.925.538-4.392q.3-2.515.574-5.03.314-2.733.583-5.467.711-7.043,1.248-14.1.793-10.287,1.2-20.611.2-4.929.31-9.868.155-6.123.146-12.255,0-5.959-.1-11.936c0-1.312-.055-2.624-.164-3.927a24.907,24.907,0,0,0-.483-3.49,45.446,45.446,0,0,0-2.734-7.727c-.2-.474-.392-.911-.583-1.412-.109-.246-.21-.5-.31-.747,5.248-4.674,8.984-10.934,12.574-17.094,5.822-9.923,11.781-20.283,12.756-31.745s-4.72-24.337-15.672-27.836a76.122,76.122,0,0,0-9.2-1.7c-2.9-.51-8.939-1.667-12.292-3.745q-2.733,2.806-5.467,5.513a20.183,20.183,0,0,1,1.977-7.936l1.294.064a2.471,2.471,0,0,1-.146-.911c0-.975.674-2.078,2.114-3.3,4.292-3.645,11.043-4.456,13.75-9.385,1.13-2.05,1.321-4.492,2.232-6.642,2.615-6.132,10.123-8.392,14.643-13.294s5.649-11.845,9.3-17.312a26.079,26.079,0,0,1,10.934-9.112c.364-.173.738-.346,1.112-.5,7.563-3.235,16.547-3.973,24.383-3.954,3.043,0,10.934.091,14.8,1.631a4.848,4.848,0,0,1,1.686,1.03C742.407,479.914,736,489.381,732.958,492.624Z" transform="translate(53.428 -53.979)" fill="url(#linear-gradient)"/>
    <path id="Path_11" data-name="Path 11" d="M641.057,542.46a55.472,55.472,0,0,1,42.588,4.437c6.56,3.645,12.447,8.729,16.055,15.289,5.422,9.841,5.185,21.7,4.8,32.939-.191,5.622-.437,11.444-2.916,16.492-2.87,5.841-8.283,9.85-13.8,13.13a38.49,38.49,0,0,1-11.226,4.857c-6.123,1.33-12.483.2-18.652-.911-6.706-1.239-13.9-2.734-18.56-7.727-2.734-2.9-4.228-6.661-5.7-10.342q-3.18-7.973-6.378-15.927c-3.69-9.212-4.939-16.875-.064-25.85,2.214-4.091,4.92-7.918,7.107-12.037C635.4,554.716,639.317,543,641.057,542.46Z" transform="translate(54.868 -59.96)" fill="url(#linear-gradient)"/>
    <path id="Path_12" data-name="Path 12" d="M980.746,710.324v27.244a152.44,152.44,0,0,1-58.98,11.663H676.032c-.128.128-.264.246-.4.365l-2.952-.365H235.564c-36.675,0-70.661-9.9-98.534-26.752V680.884L347.255,656.62h.164l122.425,10.369,31.681,2.734,16.456,1.394,34.06,2.888,17.522,1.485,25.513,2.169,3.59.3,18.387,1.558L642,681.568l35.08,2.97,58.479,4.966,41.139,3.49,67.554,5.731L857.1,699.81l1.385.118,1.2.1,16.966,1.44,18.624,1.585,2.159.182Z" transform="translate(98.125 -70.31)" fill="#676767"/>
    <path id="Path_16" data-name="Path 16" d="M695.155,652.59c4.109-.383,8.273-1.03,11.973-2.852,4.556-2.269,8.1-6.178,12.319-9.057,9.276-6.378,21.686-7.235,32.319-3.572s19.508,11.508,25.722,20.875c4.128,6.241,7.226,14.205,4.31,21.094a27.8,27.8,0,0,1-3.754,5.868l-7.6,9.932a26.424,26.424,0,0,1-5.157,5.549c-2.843,2.068-6.378,2.916-9.859,3.426-9.248,1.349-18.661.583-27.982,1.2-16.009,1.066-31.645,6.223-47.691,6.05-9.221-.1-18.324-1.959-27.335-3.818l-39.882-8.2c-6.943-1.421-14.788-3.5-18.059-9.8-1.467-2.834-1.74-6.114-1.913-9.3-.474-8.784,0-18.551,6.087-24.884,5.722-5.941,14.77-7.818,21.6-12.21,8.365-5.385,11.125-3.645,19.945.4A109.34,109.34,0,0,0,695.155,652.59Z" transform="translate(57.672 -68.385)" fill="#ae6e79"/>
    <path id="Path_17" data-name="Path 17" d="M857.939,640.145c-11.189,4.328-22.442,8.674-34.16,11.253-19.645,4.328-40.2,3.645-59.691,8.592-10.3,2.624-20.529,6.852-31.107,6-4.729-.383-9.294-1.822-13.9-2.916-25.85-6.378-55.235-4.31-76.228,12.091-7.18,5.6-13.057,12.592-18.387,20.046a13.394,13.394,0,0,0,5.385,19.936,78.926,78.926,0,0,0,25.859,6.9c11.964,1.057,23.982-.638,35.882-2.333,17.659-2.506,35.326-5.021,52.939-7.836,6.323-1.011,12.647-2.059,19.007-2.861,45.768-5.786,92.365,1.248,138.252-3.581,4.638-.492,9.358-1.13,13.576-3.107,10.679-5.011,15.964-18.223,13.759-29.832s-10.715-21.258-20.957-27.18c-8.583-4.984-17.841-7-27.4-9.112C871.9,634.132,866.485,636.865,857.939,640.145Z" transform="translate(55.045 -68.433)" fill="#ae6e79"/>
    <path id="Path_19" data-name="Path 19" d="M980.033,560.051c5.048,6.615,6.123,15.49,5.576,23.772s-2.515,16.474-2.806,24.793c-.4,11.408,2.351,22.779,1.886,34.151-.328,7.954-2.214,15.754-4.447,23.39-2.633,9.011-6.442,18.7-14.761,23.025-11.043,5.75-34.205,2.515-45.823,7.016,1.057-6.588,11.189-16.128,12.246-22.715.729-4.556,1.467-9.239.683-13.8-1-5.822-4.419-10.989-8.474-15.289-6.451-6.843-14.87-11.991-24.119-13.668s-31.891-.3-39.29,5.54c-.911-6.032,16.037-11.845,22-13.148,2.97-.665,6.378-.292,8.756-2.178,4.556-3.572,1.248-10.688,1.467-16.4.173-4.556,2.834-8.729,3.371-13.285.911-7.289-3.845-14.715-1.977-21.868.693-2.642,2.232-4.966,3.3-7.481,3.244-7.7,1.822-16.483.091-24.665-1.075-5.139-2.123-10.934.738-15.317,2.651-4.091,7.836-5.64,12.656-6.324a62.343,62.343,0,0,1,45.558,11.754c6.551,4.92,7.408,10.023,10.023,17.048C969.19,551.085,975.778,554.511,980.033,560.051Z" transform="translate(33.844 -57.733)" fill="url(#linear-gradient)"/>
    <path id="Path_20" data-name="Path 20" d="M329.961,514.062l49.54,183.09a11.435,11.435,0,0,0,9.941,8.392l222.981,21.422a11.426,11.426,0,0,0,12.191-14.1L570.364,492.012a11.426,11.426,0,0,0-11.955-8.665L340.1,499.675a11.426,11.426,0,0,0-10.141,14.387Z" transform="translate(81.023 -54.916)" fill="#444"/>
    <ellipse id="Ellipse_2" data-name="Ellipse 2" cx="24.51" cy="24.829" rx="24.51" ry="24.829" transform="translate(828.491 445.215)" fill="#fff"/>
    <path id="Path_21" data-name="Path 21" d="M836.027,479.272s5.166,15.362-10.078,21.823L824,504.5l9.549,9.422s11.772-21.476,10.5-29.1C844.046,484.821,842.223,477.076,836.027,479.272Z" transform="translate(37.102 -54.522)" fill="#fff"/>
    <path id="Path_29" data-name="Path 29" d="M23.636,0A23.636,23.636,0,1,1,0,23.636,23.636,23.636,0,0,1,23.636,0Z" transform="translate(832.181 447.602)" fill="#ff6363"/>
    <path id="Path_22" data-name="Path 22" d="M843.2,484.6l-3.754-6.2-5.467-.775c1.166-20.4-4.128-26.479-4.128-26.479l-1.23-.118-5.358-.519L813.19,440.05v-2.97c14.16,1.686,21.987,8.41,26.214,16.292C846.876,467.2,843.2,484.6,843.2,484.6Z" transform="translate(38.062 -50.809)" fill="#ff6363"/>
    <ellipse id="Ellipse_4" data-name="Ellipse 4" cx="13.148" cy="23.982" rx="13.148" ry="23.982" transform="translate(776.776 445.992) rotate(-30)" fill="#fff"/>
    <path id="Path_25" data-name="Path 25" d="M758.5,514.185c6.624,11.472,14.752,19.135,8.465,22.779s-24.6,1.822-31.226-9.658-.61-27.335,5.677-30.98S751.866,502.686,758.5,514.185Z" transform="translate(45.198 -56.004)" fill="#ff6363"/>
    <circle id="Ellipse_5" data-name="Ellipse 5" cx="66.379" cy="66.379" r="66.379" transform="translate(734.558 312.977)" fill="#ae6e79"/>
    <path id="Path_27" data-name="Path 27" d="M742.963,388.779c7.9,2.907,12.574,11.071,19.663,15.617,10.023,6.378,23.071,4.729,34.515,1.576,6.378-1.74,13.048-3.863,19.326-1.932a5.468,5.468,0,0,0,2.943.419c1.367-.392,2.041-1.9,2.487-3.253,7.763-23.144,4.273-49.358-7.444-70.771-3.025-5.522-6.651-10.861-11.645-14.7a48.576,48.576,0,0,0-13.23-6.679,132.122,132.122,0,0,0-26.315-6.5,16.347,16.347,0,0,0-4.8-.155,20.108,20.108,0,0,0-6.123,2.6,62.671,62.671,0,0,1-27.208,7.39c-12.756.483-27.335-2.524-37.167,5.658-11.845,9.813-8.893,28.957-16.574,42.278-5.084,8.811-14.889,15.207-16.5,25.239a23.3,23.3,0,0,0,.574,9.175c3.754,15.435,18.7,27.39,34.624,27.672a13.139,13.139,0,0,0,7.071-1.449,15.992,15.992,0,0,0,3.727-3.544C711.318,405.071,723.254,381.526,742.963,388.779Z" transform="translate(52.143 -38.836)" fill="#444"/>
    <path id="Path_28" data-name="Path 28" d="M821.895,401.265c-.446,1.349-1.121,2.861-2.487,3.253a5.467,5.467,0,0,1-2.943-.419c-6.278-1.932-12.984.191-19.317,1.932-11.453,3.153-24.529,4.838-34.515-1.576-7.1-4.556-11.763-12.756-19.672-15.617-19.709-7.289-31.645,16.292-42.105,28.647a15.993,15.993,0,0,1-3.727,3.544,13.139,13.139,0,0,1-7.071,1.449c-15.873-.282-30.825-12.237-34.624-27.672-.21-.911-.392-1.822-.529-2.734a.442.442,0,0,1-.046.237,23.3,23.3,0,0,0,.574,9.175c3.754,15.435,18.706,27.39,34.624,27.672a13.139,13.139,0,0,0,7.071-1.449,15.993,15.993,0,0,0,3.727-3.544c10.46-12.355,22.4-35.9,42.105-28.647,7.909,2.907,12.574,11.071,19.672,15.617,10.023,6.378,23.062,4.729,34.515,1.576,6.378-1.74,13.039-3.863,19.317-1.932a5.468,5.468,0,0,0,2.943.419c1.367-.392,2.041-1.9,2.487-3.253a82.271,82.271,0,0,0,4.082-29.394,80.913,80.913,0,0,1-4.082,22.715Z" transform="translate(52.146 -45.609)" opacity="0.1"/>
    <rect id="Rectangle_177" data-name="Rectangle 177" width="77.543" height="15.337" transform="translate(451.362 280.946)" fill="#d0cde1"/>
    <rect id="Rectangle_178" data-name="Rectangle 178" width="77.543" height="15.337" transform="translate(451.362 304.48)" fill="#d0cde1"/>
    <rect id="Rectangle_179" data-name="Rectangle 179" width="77.543" height="15.337" transform="translate(451.362 328.015)" fill="#d0cde1"/>
    <rect id="Rectangle_180" data-name="Rectangle 180" width="32.079" height="15.337" transform="translate(451.362 280.946)" opacity="0.15"/>
    <rect id="Rectangle_181" data-name="Rectangle 181" width="10.385" height="15.337" transform="translate(451.362 304.48)" opacity="0.15"/>
    <rect id="Rectangle_182" data-name="Rectangle 182" width="51.695" height="15.337" transform="translate(451.362 328.015)" opacity="0.15"/>
    <ellipse id="Ellipse_16" data-name="Ellipse 16" cx="8.498" cy="8.498" rx="8.498" ry="8.498" transform="translate(543.245 280.261)" fill="#ff6363"/>
    <ellipse id="Ellipse_17" data-name="Ellipse 17" cx="8.498" cy="8.498" rx="8.498" ry="8.498" transform="translate(543.245 302.924)" fill="#ff6363"/>
    <ellipse id="Ellipse_18" data-name="Ellipse 18" cx="8.498" cy="8.498" rx="8.498" ry="8.498" transform="translate(543.245 328.593)" fill="#ff6363"/>
    <path id="Path_53" data-name="Path 53" d="M222.529,197.083a9.029,9.029,0,1,1,9.029-9.029,9.029,9.029,0,0,1-9.029,9.029Zm0-17a7.967,7.967,0,1,0,7.967,7.967A7.967,7.967,0,0,0,222.529,180.087Z" transform="translate(324.965 98.581)" fill="#3f3d56"/>
    <path id="Path_54" data-name="Path 54" d="M222.529,245.083a9.029,9.029,0,1,1,9.029-9.029A9.029,9.029,0,0,1,222.529,245.083Zm0-17a7.967,7.967,0,1,0,7.967,7.967A7.967,7.967,0,0,0,222.529,228.087Z" transform="translate(324.965 76.074)" fill="#3f3d56"/>
    <path id="Path_55" data-name="Path 55" d="M222.529,288.083a9.029,9.029,0,1,1,9.029-9.029A9.029,9.029,0,0,1,222.529,288.083Zm0-17a7.967,7.967,0,1,0,7.967,7.967,7.967,7.967,0,0,0-7.967-7.967Z" transform="translate(324.965 55.912)" fill="#3f3d56"/>
    <rect id="Rectangle_176" data-name="Rectangle 176" width="172.211" height="2.061" transform="translate(279.126 614.773)" fill="#3f3d56"/>
    <path id="Path_56" data-name="Path 56" d="M1031.66,708.939h-1.822V695.271a2.737,2.737,0,0,1,2.734-2.734h4.556a.912.912,0,0,0,.911-.911v-9.112a.912.912,0,0,0-.911-.911h-4.556a2.737,2.737,0,0,1-2.734-2.734v-4.556a.912.912,0,0,0-.911-.911h-8.2a2.736,2.736,0,0,1-2.734-2.733v-.911a.912.912,0,0,0-.911-.911h-32.8a.912.912,0,0,0-.911.911v.911a2.736,2.736,0,0,1-2.733,2.733h-8.2a.912.912,0,0,0-.911.911v4.556a2.737,2.737,0,0,1-2.733,2.734h-4.556a.912.912,0,0,0-.911.911v9.112a.912.912,0,0,0,.911.911H969.7a2.736,2.736,0,0,1,2.734,2.734v13.668h-1.822V695.271a.912.912,0,0,0-.911-.911h-5.467a2.736,2.736,0,0,1-2.733-2.733v-9.112a2.737,2.737,0,0,1,2.734-2.733h4.556a.912.912,0,0,0,.911-.911v-4.556a2.737,2.737,0,0,1,2.734-2.734h8.2a.912.912,0,0,0,.911-.911v-.911a2.737,2.737,0,0,1,2.733-2.734h32.8a2.737,2.737,0,0,1,2.734,2.734v.911a.912.912,0,0,0,.911.911h8.2a2.736,2.736,0,0,1,2.734,2.734v4.556a.912.912,0,0,0,.911.911h4.556a2.736,2.736,0,0,1,2.734,2.733v9.112a2.736,2.736,0,0,1-2.734,2.734h-4.556a.912.912,0,0,0-.911.911Z" transform="translate(-633.19 -155.67)" fill="#3f3d56"/>
    <path id="Path_57" data-name="Path 57" d="M1029.815,778.939H974.234a2.736,2.736,0,0,1-2.734-2.733v-39.18h1.822v39.18a.912.912,0,0,0,.911.911h55.581a.912.912,0,0,0,.911-.911v-39.18h1.822v39.18a2.736,2.736,0,0,1-2.734,2.734Z" transform="translate(-634.078 -161.888)" fill="#3f3d56"/>
    <rect id="Rectangle_189" data-name="Rectangle 189" width="71.982" height="21.868" rx="2" transform="translate(337.422 559.648)" fill="#ff6363"/>
    <path id="Path_58" data-name="Path 58" d="M1035.071,735.715H966.734A2.736,2.736,0,0,1,964,732.982V714.759a2.737,2.737,0,0,1,2.734-2.734h68.338a2.737,2.737,0,0,1,2.734,2.734v18.223a2.736,2.736,0,0,1-2.733,2.734Zm-68.338-21.868a.912.912,0,0,0-.911.911v18.223a.912.912,0,0,0,.911.911h68.338a.912.912,0,0,0,.911-.911V714.759a.912.912,0,0,0-.911-.911Z" transform="translate(-633.412 -159.667)" fill="#3f3d56"/>
    <path id="Path_59" data-name="Path 59" d="M1001.815,652.563h0a227.442,227.442,0,0,1-1.909-49.3l1.909-27.234h0c-10.516,20.925-8.14,48.467,0,76.538Z" transform="translate(-636.147 -147.586)" fill="#d0cde1"/>
    <path id="Path_60" data-name="Path 60" d="M1011.171,660.583h0a167.206,167.206,0,0,1-.918-29.348l.918-16.211h0C1006.111,627.481,1007.254,643.875,1011.171,660.583Z" transform="translate(-637.302 -151.05)" fill="#d0cde1"/>
    <path id="Path_48" data-name="Path 48" d="M383.285,246.777l-115-115.9H214v-1.822h55.05l.268.271L384.581,245.5Z" transform="translate(357.349 181.913)" fill="#3f3d56"/>
    <path id="Path_49" data-name="Path 49" d="M695.8,217.1l89.918-90.629h42.451v-1.425H785.125l-.209.212L694.789,216.1Z" transform="translate(176.143 177.873)" fill="#3f3d56"/>
    <rect id="Rectangle_184" data-name="Rectangle 184" width="17.357" height="17.357" transform="translate(1015.089 272.434)" fill="#ff6363"/>
    <path id="Path_62" data-name="Path 62" d="M0,0H17.357V17.357H0Z" transform="translate(1015.089 298.469)" fill="#ff6363"/>
    <path id="Path_61" data-name="Path 61" d="M0,0H17.357V17.357H0Z" transform="translate(1015.089 324.505)" fill="#ff6363"/>
    <path id="Path_50" data-name="Path 50" d="M974.056,200.671H955.5V182.115h18.556Zm-17.357-1.2h16.158V183.314H956.7Z" transform="translate(63.185 85.523)" fill="#3f3d56"/>
    <rect id="Rectangle_187" data-name="Rectangle 187" width="87.654" height="7.811" transform="translate(1047.924 299.481)" fill="#d0cde1"/>
    <path id="Path_51" data-name="Path 51" d="M974.056,244.1H955.5V225.548h18.556ZM956.7,242.9h16.158V226.747H956.7Z" transform="translate(63.185 68.126)" fill="#3f3d56"/>
    <rect id="Rectangle_188" data-name="Rectangle 188" width="87.654" height="7.811" transform="translate(1047.924 325.517)" fill="#d0cde1"/>
    <path id="Path_52" data-name="Path 52" d="M974.056,287.537H955.5V268.981h18.556Zm-17.357-1.2h16.158V270.18H956.7Z" transform="translate(63.185 50.729)" fill="#3f3d56"/>
  </g>
</svg>
